<svg xmlns="http://www.w3.org/2000/svg" viewBox="0 0 760 360" role="img" aria-label="Tray hover status popup preview">
  <defs>
    <linearGradient id="bg" x1="0" y1="0" x2="1" y2="1">
      <stop offset="0" stop-color="#f4f1ec"/>
      <stop offset="1" stop-color="#dedbd5"/>
    </linearGradient>
    <filter id="panelShadow" x="-12%" y="-18%" width="124%" height="140%">
      <feDropShadow dx="0" dy="18" stdDeviation="18" flood-color="#101820" flood-opacity="0.25"/>
    </filter>
    <filter id="iconShadow" x="-40%" y="-40%" width="180%" height="180%">
      <feDropShadow dx="0" dy="6" stdDeviation="7" flood-color="#000" flood-opacity="0.25"/>
    </filter>
  </defs>
  <rect width="760" height="360" rx="18" fill="url(#bg)"/>
  <rect x="0" y="278" width="760" height="82" fill="#eeeeec"/>
  <rect x="0" y="277" width="760" height="1" fill="#d2d2cf"/>
  <g transform="translate(48 291)" filter="url(#iconShadow)">
    <rect x="0" y="0" width="34" height="34" rx="8" fill="#22272e"/>
    <path fill="#1769ff" fill-rule="evenodd" d="M17 5a12 12 0 1 1 0 24 12 12 0 0 1 0-24Zm0 5a7 7 0 1 0 0 14 7 7 0 0 0 0-14Z"/>
  </g>
  <path d="M97 294l14 14-14 14" fill="none" stroke="#555f6b" stroke-width="2.5" stroke-linecap="round" stroke-linejoin="round"/>
  <g transform="translate(36 48)" filter="url(#panelShadow)">
    <rect x="0" y="0" width="660" height="238" rx="12" fill="#1b2027"/>
    <rect x="0.5" y="0.5" width="659" height="237" rx="11.5" fill="none" stroke="#3b4654"/>
    <g font-family="Inter, Segoe UI, Arial, sans-serif" font-size="26" font-weight="800" dominant-baseline="middle">
      <text x="34" y="50" fill="#a8b1be">CPU</text>
      <text x="132" y="50" fill="#f1f4f8">7%</text>
      <text x="34" y="100" fill="#a8b1be">MEM</text>
      <text x="132" y="100" fill="#f1f4f8">16.3 GB / 31.9 GB (51%)</text>
      <text x="34" y="150" fill="#a8b1be">GPU</text>
      <text x="132" y="150" fill="#f1f4f8">3% · 3070 · 5.1G / 8.0G</text>
      <text x="34" y="200" fill="#a8b1be">NET</text>
      <text x="132" y="200" fill="#f1f4f8">↓ 23K ↑ 7K</text>
    </g>
  </g>
</svg>
